HIERARCHY
ROOT Hips
{
	OFFSET 0.053599 88.859886 3.107447
	CHANNELS 6 Xposition Yposition Zposition Zrotation Yrotation Xrotation 
	JOINT Spine
	{
		OFFSET -0.000000 8.814246 -2.080107
		CHANNELS 3 Zrotation Yrotation Xrotation
		JOINT Spine1
		{
			OFFSET 0.000000 8.844141 0.000000
			CHANNELS 3 Zrotation Yrotation Xrotation
			JOINT Spine2
			{
				OFFSET -0.000000 11.682268 0.000000
				CHANNELS 3 Zrotation Yrotation Xrotation
				JOINT Spine3
				{
					OFFSET 0.000000 11.746700 0.000000
					CHANNELS 3 Zrotation Yrotation Xrotation
					JOINT Neck
					{
						OFFSET -0.000000 17.658264 -0.000000
						CHANNELS 3 Zrotation Yrotation Xrotation
						JOINT Neck1
						{
							OFFSET -0.000000 5.101515 -0.000000
							CHANNELS 3 Zrotation Yrotation Xrotation
							JOINT Head
							{
								OFFSET 0.000000 5.101515 0.000000
								CHANNELS 3 Zrotation Yrotation Xrotation
								JOINT HeadEnd
								{
									OFFSET 0.000000 11.655085 0.000000
									CHANNELS 3 Zrotation Yrotation Xrotation
									End Site
									{
										OFFSET 0.000000 0.000000 0.000000
									}
								}
							}
						}
					}
					JOINT RightShoulder
					{
						OFFSET -2.625389 11.175210 0.000000
						CHANNELS 3 Zrotation Yrotation Xrotation
						JOINT RightArm
						{
							OFFSET -0.000000 10.434715 -0.000000
							CHANNELS 3 Zrotation Yrotation Xrotation
							JOINT RightForeArm
							{
								OFFSET -0.000000 29.628420 0.000000
								CHANNELS 3 Zrotation Yrotation Xrotation
								JOINT RightHand
								{
									OFFSET -0.000000 22.857611 0.000000
									CHANNELS 3 Zrotation Yrotation Xrotation
									JOINT RightHandThumb1
									{
										OFFSET -2.867323 3.959563 2.944291
										CHANNELS 3 Zrotation Yrotation Xrotation
										JOINT RightHandThumb2
										{
											OFFSET 0.000000 3.350399 0.000000
											CHANNELS 3 Zrotation Yrotation Xrotation
											JOINT RightHandThumb3
											{
												OFFSET 0.000000 3.756509 -0.000000
												CHANNELS 3 Zrotation Yrotation Xrotation
												JOINT RightHandThumb4
												{
													OFFSET 0.000000 3.147345 0.000000
													CHANNELS 3 Zrotation Yrotation Xrotation
													End Site
													{
														OFFSET 0.000000 0.000000 0.000000
													}
												}
											}
										}
									}
									JOINT RightHandIndex1
									{
										OFFSET -0.086752 10.030893 2.345280
										CHANNELS 3 Zrotation Yrotation Xrotation
										JOINT RightHandIndex2
										{
											OFFSET -0.000000 4.061090 0.000000
											CHANNELS 3 Zrotation Yrotation Xrotation
											JOINT RightHandIndex3
											{
												OFFSET -0.000000 3.248873 0.000000
												CHANNELS 3 Zrotation Yrotation Xrotation
												JOINT RightHandIndex4
												{
													OFFSET 0.000000 2.639709 -0.000000
													CHANNELS 3 Zrotation Yrotation Xrotation
													End Site
													{
														OFFSET 0.000000 0.000000 0.000000
													}
												}
											}
										}
									}
									JOINT RightHandMiddle1
									{
										OFFSET 0.104102 9.502952 0.006768
										CHANNELS 3 Zrotation Yrotation Xrotation
										JOINT RightHandMiddle2
										{
											OFFSET 0.000000 4.568727 0.000000
											CHANNELS 3 Zrotation Yrotation Xrotation
											JOINT RightHandMiddle3
											{
												OFFSET 0.000000 3.654981 -0.000000
												CHANNELS 3 Zrotation Yrotation Xrotation
												JOINT RightHandMiddle4
												{
													OFFSET -0.000000 2.741236 -0.000000
													CHANNELS 3 Zrotation Yrotation Xrotation
													End Site
													{
														OFFSET 0.000000 0.000000 0.000000
													}
												}
											}
										}
									}
									JOINT RightHandRing1
									{
										OFFSET 0.086752 8.921708 -2.267442
										CHANNELS 3 Zrotation Yrotation Xrotation
										JOINT RightHandRing2
										{
											OFFSET -0.000000 4.061090 0.000000
											CHANNELS 3 Zrotation Yrotation Xrotation
											JOINT RightHandRing3
											{
												OFFSET 0.000000 3.654981 -0.000000
												CHANNELS 3 Zrotation Yrotation Xrotation
												JOINT RightHandRing4
												{
													OFFSET 0.000000 2.741236 -0.000000
													CHANNELS 3 Zrotation Yrotation Xrotation
													End Site
													{
														OFFSET 0.000000 0.000000 0.000000
													}
												}
											}
										}
									}
									JOINT RightHandPinky1
									{
										OFFSET -0.173504 7.976997 -4.467199
										CHANNELS 3 Zrotation Yrotation Xrotation
										JOINT RightHandPinky2
										{
											OFFSET 0.000000 3.350399 -0.000000
											CHANNELS 3 Zrotation Yrotation Xrotation
											JOINT RightHandPinky3
											{
												OFFSET -0.000000 2.842763 0.000000
												CHANNELS 3 Zrotation Yrotation Xrotation
												JOINT RightHandPinky4
												{
													OFFSET -0.000000 2.639709 0.000000
													CHANNELS 3 Zrotation Yrotation Xrotation
													End Site
													{
														OFFSET 0.000000 0.000000 0.000000
													}
												}
											}
										}
									}
									JOINT RightForeArmEnd
									{
										OFFSET 0.000000 0.000000 0.000000
										CHANNELS 3 Zrotation Yrotation Xrotation
										End Site
										{
											OFFSET 0.000000 0.000000 0.000000
										}
									}
								}
								JOINT RightArmEnd
								{
									OFFSET 0.000000 0.000000 0.000000
									CHANNELS 3 Zrotation Yrotation Xrotation
									End Site
									{
										OFFSET 0.000000 0.000000 0.000000
									}
								}
							}
						}
					}
					JOINT LeftShoulder
					{
						OFFSET 2.625389 11.175210 0.000000
						CHANNELS 3 Zrotation Yrotation Xrotation
						JOINT LeftArm
						{
							OFFSET 0.000000 10.813635 -0.000000
							CHANNELS 3 Zrotation Yrotation Xrotation
							JOINT LeftForeArm
							{
								OFFSET 0.000000 28.724781 0.000000
								CHANNELS 3 Zrotation Yrotation Xrotation
								JOINT LeftHand
								{
									OFFSET 0.644384 25.716167 -0.328871
									CHANNELS 3 Zrotation Yrotation Xrotation
									JOINT LeftHandThumb1
									{
										OFFSET 2.867323 3.959563 2.944291
										CHANNELS 3 Zrotation Yrotation Xrotation
										JOINT LeftHandThumb2
										{
											OFFSET 0.000000 3.350399 0.000000
											CHANNELS 3 Zrotation Yrotation Xrotation
											JOINT LeftHandThumb3
											{
												OFFSET -0.000000 3.756509 0.000000
												CHANNELS 3 Zrotation Yrotation Xrotation
												JOINT LeftHandThumb4
												{
													OFFSET -0.000000 3.100000 0.000000
													CHANNELS 3 Zrotation Yrotation Xrotation
													End Site
													{
														OFFSET 0.000000 0.000000 0.000000
													}
												}
											}
										}
									}
									JOINT LeftHandIndex1
									{
										OFFSET 0.086752 10.030893 2.345280
										CHANNELS 3 Zrotation Yrotation Xrotation
										JOINT LeftHandIndex2
										{
											OFFSET -0.000000 4.061090 -0.000000
											CHANNELS 3 Zrotation Yrotation Xrotation
											JOINT LeftHandIndex3
											{
												OFFSET 0.000000 3.248873 -0.000000
												CHANNELS 3 Zrotation Yrotation Xrotation
												JOINT LeftHandIndex4
												{
													OFFSET 0.000000 2.639709 -0.000000
													CHANNELS 3 Zrotation Yrotation Xrotation
													End Site
													{
														OFFSET 0.000000 0.000000 0.000000
													}
												}
											}
										}
									}
									JOINT LeftHandMiddle1
									{
										OFFSET -0.104102 9.502952 0.006768
										CHANNELS 3 Zrotation Yrotation Xrotation
										JOINT LeftHandMiddle2
										{
											OFFSET -0.000000 4.568727 -0.000000
											CHANNELS 3 Zrotation Yrotation Xrotation
											JOINT LeftHandMiddle3
											{
												OFFSET 0.000000 3.654981 0.000000
												CHANNELS 3 Zrotation Yrotation Xrotation
												JOINT LeftHandMiddle4
												{
													OFFSET 0.000000 2.741236 -0.000000
													CHANNELS 3 Zrotation Yrotation Xrotation
													End Site
													{
														OFFSET 0.000000 0.000000 0.000000
													}
												}
											}
										}
									}
									JOINT LeftHandRing1
									{
										OFFSET -0.086752 8.921708 -2.267442
										CHANNELS 3 Zrotation Yrotation Xrotation
										JOINT LeftHandRing2
										{
											OFFSET 0.000000 4.061090 0.000000
											CHANNELS 3 Zrotation Yrotation Xrotation
											JOINT LeftHandRing3
											{
												OFFSET 0.000000 3.654981 0.000000
												CHANNELS 3 Zrotation Yrotation Xrotation
												JOINT LeftHandRing4
												{
													OFFSET 0.000000 2.741236 0.000000
													CHANNELS 3 Zrotation Yrotation Xrotation
													End Site
													{
														OFFSET 0.000000 0.000000 0.000000
													}
												}
											}
										}
									}
									JOINT LeftHandPinky1
									{
										OFFSET 0.173504 7.976997 -4.467199
										CHANNELS 3 Zrotation Yrotation Xrotation
										JOINT LeftHandPinky2
										{
											OFFSET -0.000000 3.350399 -0.000000
											CHANNELS 3 Zrotation Yrotation Xrotation
											JOINT LeftHandPinky3
											{
												OFFSET 0.000000 2.842763 0.000000
												CHANNELS 3 Zrotation Yrotation Xrotation
												JOINT LeftHandPinky4
												{
													OFFSET -0.000000 2.639709 -0.000000
													CHANNELS 3 Zrotation Yrotation Xrotation
													End Site
													{
														OFFSET 0.000000 0.000000 0.000000
													}
												}
											}
										}
									}
									JOINT LeftForeArmEnd
									{
										OFFSET 0.000000 0.000000 0.000000
										CHANNELS 3 Zrotation Yrotation Xrotation
										End Site
										{
											OFFSET 0.000000 0.000000 0.000000
										}
									}
								}
								JOINT LeftArmEnd
								{
									OFFSET 0.000000 0.000000 0.000000
									CHANNELS 3 Zrotation Yrotation Xrotation
									End Site
									{
										OFFSET 0.000000 0.000000 0.000000
									}
								}
							}
						}
					}
				}
			}
		}
	}
	JOINT RightUpLeg
	{
		OFFSET -11.289943 0.000000 0.000000
		CHANNELS 3 Zrotation Yrotation Xrotation
		JOINT RightLeg
		{
			OFFSET 0.000000 -38.200325 0.000000
			CHANNELS 3 Zrotation Yrotation Xrotation
			JOINT RightFoot
			{
				OFFSET -0.000000 -39.900856 -0.000000
				CHANNELS 3 Zrotation Yrotation Xrotation
				JOINT RightToeBase
				{
					OFFSET 0.000000 0.000000 15.261641
					CHANNELS 3 Zrotation Yrotation Xrotation
					JOINT RightToeBaseEnd
					{
						OFFSET 0.000000 0.000000 7.370709
						CHANNELS 3 Zrotation Yrotation Xrotation
						End Site
						{
							OFFSET 0.000000 0.000000 0.000000
						}
					}
				}
				JOINT RightLegEnd
				{
					OFFSET 0.000000 0.000000 0.000000
					CHANNELS 3 Zrotation Yrotation Xrotation
					End Site
					{
						OFFSET 0.000000 0.000000 0.000000
					}
				}
			}
			JOINT RightUpLegEnd
			{
				OFFSET 0.000000 0.000000 0.000000
				CHANNELS 3 Zrotation Yrotation Xrotation
				End Site
				{
					OFFSET 0.000000 0.000000 0.000000
				}
			}
		}
	}
	JOINT LeftUpLeg
	{
		OFFSET 11.315661 -0.000000 0.000000
		CHANNELS 3 Zrotation Yrotation Xrotation
		JOINT LeftLeg
		{
			OFFSET -0.000000 -38.200325 -0.000000
			CHANNELS 3 Zrotation Yrotation Xrotation
			JOINT LeftFoot
			{
				OFFSET 0.000000 -39.900856 -0.000000
				CHANNELS 3 Zrotation Yrotation Xrotation
				JOINT LeftToeBase
				{
					OFFSET -0.000000 -0.000000 15.261641
					CHANNELS 3 Zrotation Yrotation Xrotation
					JOINT LeftToeBaseEnd
					{
						OFFSET 0.000000 -0.000000 7.539996
						CHANNELS 3 Zrotation Yrotation Xrotation
						End Site
						{
							OFFSET 0.000000 0.000000 0.000000
						}
					}
				}
				JOINT LeftLegEnd
				{
					OFFSET 0.000000 0.000000 0.000000
					CHANNELS 3 Zrotation Yrotation Xrotation
					End Site
					{
						OFFSET 0.000000 0.000000 0.000000
					}
				}
			}
			JOINT LeftUpLegEnd
			{
				OFFSET 0.000000 0.000000 0.000000
				CHANNELS 3 Zrotation Yrotation Xrotation
				End Site
				{
					OFFSET 0.000000 0.000000 0.000000
				}
			}
		}
	}
}
MOTION
Frames: 4
Frame Time: 0.016667
0.159305 88.929283 3.241226 -0.039210 -1.075051 -10.804915 1.028728 0.180146 6.987063 -0.343507 0.280094 2.940644 0.113999 0.032737 4.310975 -1.467272 0.523424 5.150929 0.951550 0.325101 3.996707 0.131225 0.087896 -3.497432 -0.114786 -0.889838 -19.879217 0.000000 0.000000 0.000000 91.642746 -0.266094 9.756921 68.321167 -22.505880 1.077709 0.482274 19.284544 36.451080 -4.599744 12.711890 -5.871438 19.082956 30.352512 62.821831 -7.689981 -10.686305 -18.321051 -5.672059 -7.010991 -12.617425 0.000000 0.000000 0.000000 5.266995 -9.931095 5.575824 6.050497 0.373479 1.310381 5.805701 -0.079206 1.328321 0.000000 0.000000 0.000000 5.711902 -4.425121 3.315318 5.243882 0.460839 0.496025 5.791892 -0.040840 0.453203 0.000000 0.000000 0.000000 7.917532 3.195669 1.642790 6.817255 -0.911763 -0.745580 6.850432 0.062352 -0.537383 0.000000 0.000000 0.000000 8.574616 11.709999 -1.027507 7.807744 -1.773130 -1.987340 7.525490 0.171568 -1.622892 0.000000 0.000000 0.000000 0.000000 0.000000 0.000000 0.000000 0.000000 0.000000 -88.436676 0.347230 4.003151 -71.959831 7.113982 -8.981576 -0.635750 -18.137238 70.896408 1.938940 -19.110809 -5.635273 -22.424376 -29.587435 59.775620 10.415282 17.274561 -27.702007 8.103687 11.482502 -19.469334 0.000000 0.000000 0.000000 -33.951996 -3.201421 0.527173 -23.011198 0.176357 -1.522244 -23.013245 -0.316294 -1.438746 0.000000 0.000000 0.000000 -34.386349 2.135438 -0.021211 -23.320055 0.340337 -0.712750 -23.407457 -0.134451 -0.574439 0.000000 0.000000 0.000000 -39.263657 10.654114 -0.550570 -26.839571 -0.733852 1.106352 -26.924711 0.189573 0.872882 0.000000 0.000000 0.000000 -41.578365 18.923595 -1.483879 -28.262924 -1.128317 3.608867 -28.120539 0.738988 3.075229 0.000000 0.000000 0.000000 0.000000 0.000000 0.000000 0.000000 0.000000 0.000000 -0.835241 -8.612761 15.521642 -0.073512 -0.714623 4.232116 -2.642858 -7.855875 17.611494 -0.953909 0.830079 -18.813087 0.000000 0.000000 0.000000 0.000000 0.000000 0.000000 0.000000 0.000000 0.000000 -1.761758 -6.035352 9.754615 0.060449 0.289108 9.696369 4.015748 -1.128354 16.687538 0.215019 -0.407566 -20.591463 0.000000 0.000000 0.000000 0.000000 0.000000 0.000000 0.000000 0.000000 0.000000 
0.150047 88.925568 3.279563 -0.033666 -1.108730 -10.843618 1.016755 0.186040 6.990269 -0.332233 0.276243 2.919638 0.088307 0.059193 4.365219 -1.474642 0.535776 5.177712 0.814222 0.366173 4.009444 0.120609 0.062915 -3.490159 -0.123743 -0.896705 -19.863621 0.000000 0.000000 0.000000 91.658958 -0.258448 9.772437 68.230576 -22.502129 1.348388 0.479200 19.373230 36.012493 -4.397566 13.026600 -5.892471 19.242805 30.302406 62.671185 -7.853837 -11.007160 -18.787912 -5.804598 -7.214413 -12.950474 0.000000 0.000000 0.000000 6.618090 -10.162519 5.072596 6.724817 0.351803 1.384858 6.486291 -0.100723 1.397860 0.000000 0.000000 0.000000 6.963131 -4.646576 2.982345 5.895288 0.451756 0.525128 6.436637 -0.048867 0.478850 0.000000 0.000000 0.000000 9.098776 2.984173 1.544835 7.471109 -0.896957 -0.790325 7.501146 0.074073 -0.573454 0.000000 0.000000 0.000000 9.636492 11.519944 -0.875583 8.391996 -1.732210 -2.129918 8.110442 0.206489 -1.745546 0.000000 0.000000 0.000000 0.000000 0.000000 0.000000 0.000000 0.000000 0.000000 -88.425209 0.359833 3.981304 -72.019310 6.941840 -9.073866 -0.630343 -18.324091 70.759621 2.176999 -18.226604 -5.943400 -22.659983 -29.543657 59.579769 10.555592 17.747606 -28.344276 8.247715 11.790060 -19.927738 0.000000 0.000000 0.000000 -35.513786 -2.971965 0.105456 -24.061810 0.133691 -1.636262 -24.059748 -0.359840 -1.542855 0.000000 0.000000 0.000000 -35.935242 2.362327 -0.283045 -24.355883 0.320746 -0.760465 -24.449768 -0.151764 -0.614078 0.000000 0.000000 0.000000 -40.784264 10.863534 -0.608220 -27.899015 -0.702793 1.169753 -27.978571 0.212466 0.922484 0.000000 0.000000 0.000000 -42.947788 19.106958 -1.324851 -29.253815 -1.043987 3.799215 -29.101467 0.811715 3.232935 0.000000 0.000000 0.000000 0.000000 0.000000 0.000000 0.000000 0.000000 0.000000 -0.855103 -8.603521 15.592956 -0.074275 -0.718794 4.222563 -2.654331 -7.819979 17.574064 -0.959980 0.831395 -18.788624 0.000000 0.000000 0.000000 0.000000 0.000000 0.000000 0.000000 0.000000 0.000000 -1.776998 -6.021636 9.825921 0.059883 0.286978 9.735521 4.009276 -1.150146 16.626143 0.210631 -0.406202 -20.568781 0.000000 0.000000 0.000000 0.000000 0.000000 0.000000 0.000000 0.000000 0.000000 
0.140071 88.921722 3.318994 -0.032321 -1.141847 -10.880693 1.009883 0.189159 6.990654 -0.324808 0.272865 2.895247 0.064729 0.082330 4.418634 -1.483776 0.546968 5.199003 0.670923 0.410203 4.042230 0.113332 0.048299 -3.483265 -0.137408 -0.908463 -19.853004 0.000000 0.000000 0.000000 91.661415 -0.246323 9.783555 68.174393 -22.522379 1.620083 0.469887 19.442209 35.622353 -4.196153 13.324988 -5.923802 19.374895 30.260973 62.547489 -7.990231 -11.272284 -19.172586 -5.914456 -7.382469 -13.226379 0.000000 0.000000 0.000000 7.767448 -10.352621 4.620281 7.297518 0.332536 1.450799 7.063890 -0.119768 1.458863 0.000000 0.000000 0.000000 8.024723 -4.832361 2.682719 6.449226 0.443660 0.551037 6.981946 -0.055979 0.501483 0.000000 0.000000 0.000000 10.115047 2.801150 1.455562 8.023089 -0.883931 -0.830582 8.049236 0.084304 -0.605972 0.000000 0.000000 0.000000 10.555752 11.350692 -0.743098 8.884480 -1.695387 -2.259514 8.602897 0.238127 -1.856451 0.000000 0.000000 0.000000 0.000000 0.000000 0.000000 0.000000 0.000000 0.000000 -88.422501 0.366759 3.961821 -72.100105 6.798402 -9.144222 -0.622480 -18.462645 70.599579 2.382201 -17.420338 -6.273464 -22.835323 -29.512644 59.436359 10.654595 18.100006 -28.819668 8.351374 12.018641 -20.267794 0.000000 0.000000 0.000000 -36.673660 -2.808863 -0.224413 -24.865664 0.097465 -1.737331 -24.862272 -0.396675 -1.635070 0.000000 0.000000 0.000000 -37.096493 2.529245 -0.488732 -25.148291 0.304271 -0.802260 -25.250460 -0.166325 -0.648948 0.000000 0.000000 0.000000 -41.947811 11.022239 -0.648402 -28.718594 -0.676814 1.225619 -28.791687 0.231815 0.965710 0.000000 0.000000 0.000000 -44.007412 19.252117 -1.197374 -30.021391 -0.973304 3.965278 -29.856653 0.873314 3.370996 0.000000 0.000000 0.000000 0.000000 0.000000 0.000000 0.000000 0.000000 0.000000 -0.874070 -8.603679 15.665496 -0.074906 -0.721998 4.212892 -2.665317 -7.778366 17.542603 -0.963839 0.832725 -18.767733 0.000000 0.000000 0.000000 0.000000 0.000000 0.000000 0.000000 0.000000 0.000000 -1.790918 -6.023594 9.885358 0.059498 0.285316 9.783635 4.005729 -1.172181 16.572357 0.205534 -0.403943 -20.554167 0.000000 0.000000 0.000000 0.000000 0.000000 0.000000 0.000000 0.000000 0.000000 
0.129734 88.917221 3.358610 -0.035366 -1.169947 -10.917206 1.008497 0.190311 6.990435 -0.320734 0.270317 2.867599 0.044104 0.103333 4.471696 -1.495054 0.557247 5.212387 0.530373 0.453212 4.089000 0.109665 0.042572 -3.478459 -0.154120 -0.923871 -19.850286 0.000000 0.000000 0.000000 91.652550 -0.229781 9.792073 68.149612 -22.563841 1.883408 0.457890 19.497324 35.279305 -3.978229 13.604691 -5.979005 19.482798 30.226851 62.446564 -8.103309 -11.488876 -19.486593 -6.004916 -7.519898 -13.452790 0.000000 0.000000 0.000000 8.731566 -10.506151 4.219403 7.771251 0.315961 1.507771 7.542207 -0.135993 1.511178 0.000000 0.000000 0.000000 8.912859 -4.986038 2.416556 6.907609 0.436686 0.573577 7.430747 -0.062079 0.520959 0.000000 0.000000 0.000000 10.981215 2.643302 1.374225 8.476078 -0.872959 -0.865870 8.497867 0.092859 -0.634409 0.000000 0.000000 0.000000 11.346023 11.199800 -0.632410 9.289005 -1.663692 -2.373584 9.006666 0.265503 -1.953246 0.000000 0.000000 0.000000 0.000000 0.000000 0.000000 0.000000 0.000000 0.000000 -88.427757 0.369397 3.946293 -72.193596 6.692788 -9.185383 -0.614194 -18.557291 70.405220 2.519220 -16.681688 -6.624129 -22.957956 -29.491409 59.336185 10.722407 18.348640 -29.153835 8.422506 12.179242 -20.506742 0.000000 0.000000 0.000000 -37.496243 -2.696304 -0.482805 -25.455391 0.068129 -1.824857 -25.452644 -0.426371 -1.714620 0.000000 0.000000 0.000000 -37.927517 2.648372 -0.654504 -25.728401 0.291037 -0.837974 -25.839657 -0.178006 -0.678841 0.000000 0.000000 0.000000 -42.800381 11.137100 -0.681305 -29.326014 -0.655997 1.273282 -29.391863 0.247396 1.002174 0.000000 0.000000 0.000000 -44.788574 19.361509 -1.104404 -30.588322 -0.916834 4.104747 -30.409557 0.922756 3.487341 0.000000 0.000000 0.000000 0.000000 0.000000 0.000000 0.000000 0.000000 0.000000 -0.891277 -8.613398 15.739552 -0.075374 -0.724054 4.201976 -2.675202 -7.734590 17.516092 -0.966005 0.833965 -18.748838 0.000000 0.000000 0.000000 0.000000 0.000000 0.000000 0.000000 0.000000 0.000000 -1.801348 -6.040911 9.934630 0.059376 0.284201 9.839396 4.004485 -1.193229 16.522745 0.200100 -0.400952 -20.545448 0.000000 0.000000 0.000000 0.000000 0.000000 0.000000 0.000000 0.000000 0.000000 
